<?xml version="1.0" encoding="UTF-8" standalone="no"?>
<svg id="svg2" xmlns:rdf="http://www.w3.org/1999/02/22-rdf-syntax-ns#" xmlns="http://www.w3.org/2000/svg" height="990pt" width="2331pt" version="1.1" xmlns:cc="http://creativecommons.org/ns#" xmlns:dc="http://purl.org/dc/elements/1.1/" viewBox="0 0 2331 990">
<g id="g4221" transform="translate(-3200)">
<path id="rect4218" d="m3710.5 4.4156c-4.2661-0.033507-8.5669 0.31469-12.867 1.075-32.05 4-60.15 29.029-67.58 60.519-4.7 14.539-1.9 30.79-3.7 44.99-13.52-32.86-51.32-50.791-85.67-45.291-37.14 1.72-68.899 34.491-70.739 71.361-0.12 10.08 0.3194 20.169-0.3906 30.239-13.17-29.19-46.18-46.05-77.63-41.38-39.71-5.34-78.461 27.46-79.611 67.47-0.92 47.48-0.01 95.001-0.4094 142.49-17.6 0.52-35.22-0.26124-52.82 0.16876-0.54 24.48 0.2609 49.01-0.2391 73.5-24.37 2.06-45.9 21.951-47.77 46.711 0.06 26.67-0.8309 53.409 0.4891 80.059 2.73 23.78 23.941 41.771 47.191 43.991 0.69 24.5-0.18 49.05 0.25 73.57 17.62 0.52 35.26-0.27031 52.88 0.17969 0.82 48.63-1.2497 97.37 1.0203 145.95 2.32 37.8 39.631 68.159 77.041 64.059 32.03 4.63 66.009-11.419 79.489-41.459 0.97 22.03-1.64 45.93 11.6 65.3 30.8 53.02 122.23 48.699 145.44-9.0906 1.16 16.28-0.6197 33.19 4.6203 49.02 10.81 37.4 51.4 63.46 90.03 56.43 38.17-4.97 68.809-40.26 69.559-78.58 0.68-95.86-0.0003-191.75 0.3297-287.61 13.93-0.48 27.891 0.26 41.831-0.15 0.56-12.59-0.3006-25.221 0.1594-37.811 354.6-0.27 709.23-0.12032 1063.8-0.0703 0.5504 12.6-0.3112 25.23 0.1688 37.85 13.92 0.47 27.882-0.27 41.831 0.15 0.6904 96.42-0.8296 192.92 0.7592 289.32 0.5016 50.67 55.851 90.9 104.29 74.55 44.34-11.45 65.369-61.02 59.639-102.93 13.26 31.66 49.18 50.011 82.75 45.391 33.55-0.4 64.171-26.001 71.611-58.481 4.08-14.09 0.9088-28.859 2.4592-43.219 13.17 28.65 45.51 45.549 76.6 41.389 38.54 5.39 77.5-25.07 80.1-64.02 2.18-48.57 0.1808-97.32 0.9496-145.95 17.59-0.53 35.21 0.25124 52.821-0.16876 0.54-24.47-0.2904-48.981 0.2592-73.461 24.4-2.33 45.69-22 47.75-46.75-0.02-26.38 0.7096-52.809-0.4-79.159-2.06-24.14-23.72-42.97-47.28-44.9-0.7-24.49 0.1688-49.051-0.2496-73.561-17.631-0.52-35.26 0.25124-52.86-0.16876-0.56-47.46 0.6296-94.97-0.5704-142.42-0.8696-39.49-39.23-72.601-78.49-67.591-31.64-4.5-65.53 11.621-78.51 41.461-0.06-25.48 0.5304-53.791-17.83-74.091-35.45-44.23-117.42-36.18-139.2 17.88-1.2096-14.18 0.3904-28.699-2.9496-42.709-7.62-38.62-46.922-67.921-86.182-63.391-40.47 2.15-74.39 38.88-75.179 79.13-0.4704 95.89 0.03 191.8-0.2392 287.7-13.95 0.47-27.902-0.27-41.831 0.15-0.58 12.59 0.2792 25.211-0.1592 37.811-354.6 0.26-709.23 0.12032-1063.8 0.0703-0.57-12.61 0.2912-25.24-0.1688-37.85-13.93-0.48-27.881 0.26-41.811-0.15-0.64-96.45 0.6106-192.97-0.6094-289.41-0.8972-41.905-38.794-77.79-80.033-78.114zm1727.5 337.5c0.2192-0.001 0.4376 0.001 0.6568 0-1.0024 0.005-2.004 0.0126-3.0064 0.0203 0.7832-0.006 1.5664-0.0156 2.3496-0.0203z" fill="#ffffff"/>
<path id="path4" d="m3697.6 5.49c45.87-8.11 91.91 30.8 92.9 77.04 1.22 96.44-0.03 192.96 0.61 289.41 13.93 0.41 27.88-0.33 41.81 0.15 0.46 12.61-0.4 25.24 0.17 37.85 354.61 0.05 709.24 0.19 1063.8-0.07 0.44-12.6-0.42-25.22 0.16-37.81 13.93-0.42 27.88 0.32 41.83-0.15 0.27-95.9-0.23-191.81 0.24-287.7 0.79-40.25 34.71-76.98 75.18-79.13 39.26-4.53 78.56 24.77 86.18 63.39 3.34 14.01 1.74 28.53 2.95 42.71 21.78-54.06 103.75-62.11 139.2-17.88 18.36 20.3 17.77 48.61 17.83 74.09 12.98-29.84 46.87-45.96 78.51-41.46 39.26-5.01 77.62 28.1 78.49 67.59 1.2 47.45 0.01 94.96 0.57 142.42 17.6 0.42 35.23-0.35 52.86 0.17 0.42 24.51-0.45 49.07 0.25 73.56 23.56 1.93 45.22 20.76 47.28 44.9 1.11 26.35 0.38 52.78 0.4 79.16-2.06 24.75-23.35 44.42-47.75 46.75-0.55 24.48 0.28 48.99-0.26 73.46-17.61 0.42-35.23-0.36-52.82 0.17-0.77 48.63 1.23 97.38-0.95 145.95-2.6 38.95-41.56 69.41-80.1 64.02-31.09 4.16-63.43-12.74-76.6-41.39-1.55 14.36 1.62 29.13-2.46 43.22-7.44 32.48-38.06 58.08-71.61 58.48-33.57 4.62-69.49-13.73-82.75-45.39 5.73 41.91-15.3 91.48-59.64 102.93-48.44 16.35-103.79-23.88-104.29-74.55-1.59-96.4-0.07-192.9-0.76-289.32-13.95-0.42-27.91 0.32-41.83-0.15-0.48-12.62 0.38-25.25-0.17-37.85-354.61-0.05-709.24-0.2-1063.8 0.07-0.46 12.59 0.4 25.22-0.16 37.81-13.94 0.41-27.9-0.33-41.83 0.15-0.33 95.86 0.35 191.75-0.33 287.61-0.75 38.32-31.39 73.61-69.56 78.58-38.63 7.03-79.22-19.03-90.03-56.43-5.24-15.83-3.46-32.74-4.62-49.02-23.21 57.79-114.64 62.11-145.44 9.09-13.24-19.37-10.63-43.27-11.6-65.3-13.48 30.04-47.46 46.09-79.49 41.46-37.41 4.1-74.72-26.26-77.04-64.06-2.27-48.58-0.2-97.32-1.02-145.95-17.62-0.45-35.26 0.34-52.88-0.18-0.43-24.52 0.44-49.07-0.25-73.57-23.25-2.22-44.46-20.21-47.19-43.99-1.32-26.65-0.43-53.39-0.49-80.06 1.87-24.76 23.4-44.65 47.77-46.71 0.5-24.49-0.3-49.02 0.24-73.5 17.6-0.43 35.22 0.35 52.82-0.17 0.4-47.49-0.51-95.01 0.41-142.49 1.15-40.01 39.9-72.81 79.61-67.47 31.45-4.67 64.46 12.19 77.63 41.38 0.71-10.07 0.27-20.16 0.39-30.24 1.84-36.87 33.6-69.64 70.74-71.36 34.35-5.5 72.15 12.43 85.67 45.29 1.81-14.2-1.02-30.45 3.64-44.99 7.43-31.49 35.53-56.52 67.58-60.52m1259.5 42.17c-9.41 10.07-10.47 25.51-11.97 38.55-0.41 268.27 0.01 536.54-0.2 804.82-0.14 17.88 1.55 36.91 11.94 52.11 13.08 22.85 40.41 37.64 66.73 35.8 39.09 0.23 73.35-35.35 73.24-74.16 0.16-273.16 0.33-546.34-0.08-819.49 0.27-38.68-33.26-73.07-71.66-74.81-26.09-1.47-56.39 12.68-68 37.18m-1324.1 41.43c-0.06 271.54-0.28 543.09 0.11 814.62-0.25 38.75 33 74.82 72.17 75.11 26.62 2.09 54.61-12.44 67.66-35.69 9.3-13.3 12.18-30.16 12-46.12-0.07-268.3 0.03-536.6-0.05-804.89 0.04-15.76-3.31-31.5-11.14-45.26-14.58-22.59-41.01-38.4-68.4-35.82-40.18 0.46-74.18 38.15-72.35 78.05m-157.1 47.97c0.08 238.23-0.15 476.46 0.11 714.68 1.15 36.63 34.69 67.83 71.22 67.12 26.44 2.05 54.44-9.76 68.51-32.79 7.4-11.54 11.82-25.27 11.21-39.06-0.1-234.98-0.05-469.97-0.02-704.96 0.27-13.45-3.8-26.94-11.25-38.11-13.66-23.18-42.11-35.01-68.39-32.85-36.26-0.45-69.39 29.65-71.39 65.97m1638.9-33.91c-6.73 9.31-10.72 21.33-11.87 32.96-0.07 236.93-0.01 473.87-0.03 710.81-0.29 14.1 3.93 28.5 11.86 39.97 15.11 24.91 48.01 35.87 75 31.3 35.27-2.2 65.15-34.91 64.17-70.25-0.18-236.55 0.21-473.12-0.19-709.67-0.76-33.63-29.42-63.75-62.87-66.43-26.98-4.56-61.12 5.68-76.07 31.31m157.29 57.5c-9.61 11.33-12.04 26.98-12.2 41.36 0.04 194.96-0.03 389.92 0.03 584.88-0.01 15.15 2.88 30.66 11.93 43.17 15.7 24.68 47.39 31.52 74.76 27.87 34.65 1.39 64.77-29.96 65.23-64.01 0.14-190.32 0.01-380.64 0.07-570.97-0.07-13.58 0.61-27.33-2.07-40.74-6.1-27.45-31.8-49.46-60.02-50.48-26.02-2.4-63.63 1.24-77.73 28.92m-1954 35.55c-0.24 198.17-0.36 396.36 0.05 594.53-1.22 35.41 29.27 68.31 65.08 67.28 27.77 3.41 59.93-3.5 75.47-28.86 7.6-11.12 11.21-24.78 11.23-38.17-0.01-196.63 0.02-393.26-0.02-589.88 0.15-14.12-3.08-28.56-11.26-40.25-15.68-25.37-47.65-32.99-75.57-28.81-34.54-1.22-64.7 30.14-64.98 64.16m-53.11 145.82c-0.1 101.98-0.11 203.97 0 305.96 1.74-0.01 5.22-0.04 6.95-0.05 13.3 0.33 26.62 0.05 39.92 0 0.13-101.93 0.1-203.87 0.01-305.8-13.29-0.48-26.62-0.09-39.93-0.07-1.73-0.01-5.21-0.03-6.95-0.04m2153 0.05c-0.14 101.93-0.1 203.87-0.01 305.8 13.27 0.47 26.6 0.07 39.93 0.09 1.74 0 5.21 0.01 6.95 0.02 0.1-101.99 0.1-203.98 0-305.96-1.74 0.02-5.22 0.05-6.95 0.07-13.31-0.4-26.64-0.06-39.92-0.02m-1626.9 35.99c-0.27 77.94-0.13 155.91-0.06 233.86 11.92 0.23 23.86 0.19 35.8 0.02 0.27-77.94 0.13-155.91 0.06-233.86-11.94-0.23-23.87-0.2-35.8-0.02m1112 0c-0.27 77.94-0.14 155.91-0.06 233.86 11.91 0.23 23.85 0.19 35.8 0.02 0.26-77.94 0.13-155.91 0.06-233.86-11.95-0.23-23.88-0.2-35.8-0.02m-1648.6 38.49c-21.11 2.93-38.23 23.24-37.53 44.56-0.02 23.21-0.17 46.41 0.06 69.62 0.12 22.23 19.66 42.41 41.88 43.11 0.18-52.52-0.19-105.06 0.19-157.59l-4.6 0.3m578.53-0.46c-0.17 38.63-0.14 77.27-0.02 115.91-0.24 13.95-0.14 27.91-0.01 41.87 354.6 0.26 709.25 0.13 1063.9 0.06 0.18-13.97 0.17-27.96-0.01-41.93 0.15-38.62 0.11-77.25 0.02-115.87-354.6-0.25-709.24-0.16-1063.8-0.04m1637.9 0.07c-0.02 52.56-0.14 105.14 0.06 157.71 22.53-0.57 42.13-21.57 41.89-44-0.24-24.76 0.63-49.55-0.47-74.28-1.52-20.95-20.61-38.8-41.48-39.43z" fill="#ffffff"/>
<g>
<path id="path6" d="m5020.2 10.386c-24.869 0.43304-52.18 14.305-63.064 37.273 5.21 9.02 9.2309 18.981 9.8609 29.481 0.03 276.59-0.011 553.19 0.019 829.78 0.41 12.8-3.7494 25.26-10.109 36.22 13.08 22.85 40.41 37.64 66.73 35.8 30.92-10.82 55.12-40.56 54.38-74.05-0.05-273.26 0.05-546.53-0.05-819.78 0.84-32.71-22.759-63.429-53.589-73.169 0.19-0.36 0.5694-1.1009 0.7594-1.4609-1.6307-0.09187-3.278-0.12262-4.9359-0.09375zm-1309.6 0.383c-1.7018 0.02041-3.41 0.11062-5.1219 0.27188-28.42 11.41-52.31 37.489-53.27 69.239-0.57 271.44 0.3506 542.9-0.4594 814.34-4.32 36.48 19.869 71.6 53.659 84.2 26.62 2.09 54.611-12.441 67.661-35.691-6.85-12.62-11.19-26.769-11-41.209-0.06-268.29 0.019-536.58-0.041-804.88 0.51-17 0.85-36.161 11.85-50.181-13.668-21.178-37.752-36.397-63.278-36.091zm1467.3 60.02c-24.109 0.067-50.386 10.736-63 32.361 4.28 11 9.7297 21.91 10.08 33.95 0.03 236.59 0.04 473.19 0 709.79 0.59 14.1-4.4503 27.39-10.12 40 15.11 24.91 48.01 35.87 75 31.3-1.92 0.42-5.3197-0.13128-1.9297-1.5313 29.23-10.43 49.46-40.709 48.07-71.709-0.04-233.28 0.07-466.55-0.05-699.83 1.31-31.66-19.449-62.77-49.859-72.43 1.16-1.32 3.2697-0.59 4.8797-0.85-4.2156-0.7125-8.6056-1.064-13.07-1.0516zm-1625.6 0.05938c-1.6553 0.02635-3.306 0.10719-4.9485 0.24219-29.99 8.9-53.02 37.61-53.15 69.23-0.54 236.52-0.1103 473.07-0.2203 709.61 0.52 31.54 23.599 59.63 53.309 68.93 26.44 2.05 54.441-9.759 68.511-32.789-8.34-12.53-11.65-28.071-10.92-42.991 0.21-233.32-0.011-466.64 0.1094-699.96 0.06-13.67 2.94-27.74 10.75-39.18-12.806-21.731-38.611-33.487-63.441-33.092zm-155.88 60.119c-4.4826 0.0543-8.9437 0.42032-13.306 1.0734-26.27 9.92-46.149 35.729-45.909 64.269-0.58 198.23-0.031 396.47-0.2812 594.69-0.94 29.46 19.221 56.679 46.341 67.009 27.77 3.41 59.93-3.4994 75.47-28.859-10.3-12.38-11.941-29.631-11.791-45.141 0.05-191.66 0.021-383.32 0.011-574.98 0.34-16.41 0.6597-34.94 11.73-48.18-13.23-21.406-38.058-30.176-62.264-29.883zm1940.6 0.14844c-24.287-0.0616-52.92 6.1794-64.817 29.534 5.81 10.52 10.42 22.181 9.8 34.441 0.01 199.94 0.019 399.88-0.011 599.81 0.56 12.5-3.9497 24.469-10.03 35.159 15.7 24.68 47.389 31.52 74.759 27.87 27.24-10.16 47.121-37.61 46.281-66.98-0.13-198.21 0.3197-396.44-0.2203-594.64 0.1-27.75-18.55-53.889-44.58-63.209-2.29-1.13 0.6197-1.5203 1.7297-1.3703-4.0656-0.375-8.4149-0.60265-12.912-0.61407z" fill="#ffffff"/>
<path id="path8" d="m3705.4 11.041c-40.18 0.46-74.18 38.15-72.35 78.05-0.06 271.54-0.2791 543.09 0.1109 814.62-0.25 38.75 32.999 74.821 72.169 75.111-33.79-12.6-57.979-47.72-53.659-84.2 0.81-271.44-0.1106-542.9 0.4594-814.34 0.96-31.75 24.85-57.829 53.27-69.239zm1251.7 36.619c-9.41 10.07-10.47 25.51-11.97 38.55-0.41 268.27 0.01 536.54-0.2 804.82-0.14 17.88 1.5506 36.911 11.941 52.111 6.36-10.96 10.519-23.42 10.109-36.22-0.03-276.59 0.011-553.19-0.019-829.78-0.63-10.5-4.6509-20.461-9.8609-29.481zm-1411.4 23.431c-35.59 0.49096-67.723 30.216-69.692 65.969 0.08 238.23-0.1506 476.46 0.1094 714.68 1.15 36.63 34.69 67.829 71.22 67.119-29.71-9.3-52.789-37.39-53.309-68.93 0.11-236.54-0.3197-473.09 0.2203-709.61 0.13-31.62 23.16-60.33 53.15-69.23-0.5665-0.007-1.1335-0.0078-1.6984 0zm1569.2 32.059c-6.73 9.31-10.72 21.329-11.87 32.959-0.07 236.93-0.01 473.87-0.03 710.81-0.29 14.1 3.9294 28.5 11.859 39.97 5.67-12.61 10.71-25.9 10.12-40 0.04-236.6 0.03-473.2 0-709.79-0.35-12.04-5.7997-22.95-10.08-33.95zm-1733.4 28.856c-33.86-0.20591-63.088 30.705-63.364 64.194-0.24 198.17-0.36 396.36 0.05 594.53-1.22 35.41 29.27 68.31 65.08 67.28-27.12-10.33-47.281-37.549-46.341-67.009 0.25-198.22-0.2988-396.46 0.2812-594.69-0.24-28.54 19.639-54.349 45.909-64.269-0.5397-0.0191-1.0782-0.0311-1.6156-0.0344zm1890.7 28.64c-9.61 11.33-12.04 26.979-12.2 41.359 0.04 194.96-0.03 389.92 0.03 584.88-0.01 15.15 2.8797 30.659 11.93 43.169 6.08-10.69 10.59-22.659 10.03-35.159 0.03-199.93 0.021-399.87 0.011-599.81 0.62-12.26-3.99-23.921-9.8-34.441z" fill="#ffffff"/>
<path id="path42" d="m3265.1 342.02c-0.1 101.98-0.11 203.97 0 305.96 1.74-0.01 5.22-0.04 6.95-0.05-0.02-101.96-0.02-203.91 0-305.87-1.73-0.01-5.21-0.0291-6.95-0.0391zm2199.9 0c-1.74 0.02-5.22 0.0503-6.95 0.0703 0.02 101.96 0.01 203.91 0 305.87 1.74 0 5.21 0.0103 6.95 0.0203 0.1-101.99 0.1-203.98 0-305.96zm-1631.9 189.98c-0.24 13.95-0.1409 27.91-0.011 41.87 354.6 0.26 709.25 0.12938 1063.9 0.0594 0.18-13.97 0.1706-27.96-0.01-41.93h-1063.8z" fill="#ffffff"/>
<path id="path44" d="m3297 341.89c-8.3197-0.001-16.647 0.15469-24.966 0.1672-0.02 101.96-0.02 203.91 0 305.87 13.3 0.33 26.62 0.05 39.92 0 0.13-101.93 0.1009-203.87 0.011-305.8-4.9837-0.18-9.9738-0.2368-14.966-0.23751zm2151 0.0203c-9.9867-0.0713-19.974 0.12781-29.934 0.15781-0.14 101.93-0.1009 203.87-0.011 305.8 13.27 0.47 26.601 0.0691 39.931 0.0891 0.01-101.96 0.02-203.91 0-305.87-3.3275-0.1-6.657-0.15437-9.9859-0.17812zm-1639 36.01c-5.9663 0.001-11.932 0.0538-17.897 0.14376-0.27 77.94-0.1294 155.91-0.059 233.86 11.92 0.23 23.86 0.19031 35.8 0.0203 0.27-77.94 0.1294-155.91 0.059-233.86-5.97-0.115-11.937-0.16531-17.903-0.16407zm1112 0c-5.9662 0.001-11.929 0.0538-17.889 0.14376-0.27 77.94-0.1394 155.91-0.059 233.86 11.91 0.23 23.85 0.19031 35.8 0.0203 0.26-77.94 0.1294-155.91 0.059-233.86-5.975-0.115-11.945-0.16531-17.911-0.16407z" fill="#ffffff"/>
<path id="path54" d="m4365 415.97c-177.31 0.006-354.62 0.0587-531.93 0.11875-0.17 38.63-0.1403 77.269-0.02 115.91h1063.8c0.15-38.62 0.1103-77.25 0.02-115.87-177.3-0.125-354.61-0.16407-531.92-0.15782zm1106 0.18751c-0.02 52.56-0.1391 105.14 0.061 157.71 22.53-0.57 42.129-21.57 41.889-44-0.24-24.76 0.6297-49.55-0.4703-74.28-1.52-20.95-20.61-38.801-41.48-39.431zm-2211.9 0.0906-4.6 0.3c-21.11 2.93-38.23 23.239-37.53 44.559-0.02 23.21-0.1691 46.41 0.061 69.62 0.12 22.23 19.66 42.411 41.88 43.111 0.18-52.52-0.1909-105.06 0.1891-157.59z" fill="#ffffff"/>
</g>
</g>
</svg>
