<svg width="1015" height="1158" viewBox="0 0 1015 1158" fill="none" xmlns="http://www.w3.org/2000/svg">
<path d="M480.676 379.086L479.653 379.67L480.463 379.475V379.67L480.846 379.398L788.848 305.98C535.32 423.332 360.348 626.955 244.709 807.404L398.156 273.457L398.582 273.263L399.562 272.795H399.008H398.369L399.093 270.342V269.718L399.349 268.823L398.625 269.641L395.982 272.601L185.504 246.856L178.94 246.038L164.192 244.246L166.622 243.545L176.127 240.702L804.406 54.9949L952.908 11.0999C914.685 23.8334 877.261 38.4874 840.807 54.9949C732.968 103.914 614.899 178.851 532.507 292.114C512.602 319.731 495.264 348.823 480.676 379.086Z" fill="url(#paint0_linear_482_3636)"/>
<path d="M461.708 101.266C492.311 101.266 517.12 78.5971 517.12 50.6332C517.12 22.6692 492.311 0 461.708 0C431.105 0 406.297 22.6692 406.297 50.6332C406.297 78.5971 431.105 101.266 461.708 101.266Z" fill="url(#paint1_linear_482_3636)"/>
<path d="M56.4979 991.714H149.062V1020.89H56.4979V991.714ZM59.4154 1091.97H24.9361V906.311H160.466V935.221H59.4154V1091.97ZM190.627 1091.97V950.339H223.781V1091.97H190.627ZM207.337 926.999C201.148 926.999 196.02 925.054 191.954 921.164C188.064 917.274 186.119 912.588 186.119 907.107C186.119 901.449 188.064 896.763 191.954 893.05C196.02 889.16 201.148 887.215 207.337 887.215C213.525 887.215 218.564 889.072 222.454 892.785C226.521 896.321 228.555 900.83 228.555 906.311C228.555 912.146 226.61 917.097 222.72 921.164C218.83 925.054 213.702 926.999 207.337 926.999ZM320.604 1093.83C305.045 1093.83 293.021 1089.85 284.534 1081.89C276.047 1073.76 271.803 1061.82 271.803 1046.09V919.042H304.956V1045.29C304.956 1052.01 306.636 1057.22 309.995 1060.94C313.532 1064.65 318.394 1066.51 324.583 1066.51C332.009 1066.51 338.198 1064.56 343.149 1060.67L352.432 1084.28C348.542 1087.46 343.767 1089.85 338.109 1091.44C332.451 1093.03 326.616 1093.83 320.604 1093.83ZM248.463 977.922V951.4H342.883V977.922H248.463ZM429.647 1093.83C414.087 1093.83 402.064 1089.85 393.577 1081.89C385.089 1073.76 380.846 1061.82 380.846 1046.09V919.042H413.999V1045.29C413.999 1052.01 415.679 1057.22 419.038 1060.94C422.575 1064.65 427.437 1066.51 433.626 1066.51C441.052 1066.51 447.241 1064.56 452.192 1060.67L461.474 1084.28C457.584 1087.46 452.81 1089.85 447.152 1091.44C441.494 1093.03 435.659 1093.83 429.647 1093.83ZM357.506 977.922V951.4H451.926V977.922H357.506ZM488.747 1091.97V895.172H521.9V1091.97H488.747ZM631.985 1093.83C616.249 1093.83 602.457 1090.73 590.61 1084.54C578.94 1078.18 569.834 1069.51 563.292 1058.55C556.927 1047.59 553.744 1035.12 553.744 1021.15C553.744 1007.01 556.838 994.543 563.027 983.757C569.392 972.795 578.056 964.219 589.019 958.03C600.158 951.842 612.801 948.747 626.946 948.747C640.738 948.747 653.027 951.753 663.812 957.765C674.598 963.777 683.085 972.264 689.274 983.227C695.463 994.189 698.557 1007.1 698.557 1021.95C698.557 1023.36 698.469 1024.96 698.292 1026.72C698.292 1028.49 698.203 1030.17 698.027 1031.76H580.001V1009.75H680.522L667.526 1016.65C667.702 1008.51 666.023 1001.35 662.486 995.162C658.95 988.973 654.087 984.111 647.899 980.575C641.887 977.038 634.903 975.27 626.946 975.27C618.813 975.27 611.651 977.038 605.463 980.575C599.451 984.111 594.677 989.062 591.141 995.427C587.781 1001.62 586.101 1008.95 586.101 1017.44V1022.75C586.101 1031.23 588.046 1038.75 591.936 1045.29C595.826 1051.83 601.308 1056.87 608.38 1060.41C615.453 1063.94 623.587 1065.71 632.781 1065.71C640.738 1065.71 647.899 1064.47 654.264 1062C660.63 1059.52 666.288 1055.63 671.239 1050.33L689.009 1070.75C682.643 1078.18 674.598 1083.92 664.873 1087.99C655.325 1091.88 644.363 1093.83 631.985 1093.83ZM741.012 1093.83C735 1093.83 729.872 1091.79 725.629 1087.73C721.385 1083.48 719.263 1078.18 719.263 1071.81C719.263 1065.09 721.385 1059.79 725.629 1055.9C729.872 1051.83 735 1049.8 741.012 1049.8C747.023 1049.8 752.151 1051.83 756.395 1055.9C760.638 1059.79 762.76 1065.09 762.76 1071.81C762.76 1078.18 760.638 1083.48 756.395 1087.73C752.151 1091.79 747.023 1093.83 741.012 1093.83ZM885.004 1091.97V1063.32L883.148 1057.22V1007.1C883.148 997.372 880.23 989.857 874.395 984.553C868.56 979.072 859.719 976.331 847.873 976.331C839.916 976.331 832.048 977.569 824.268 980.044C816.664 982.52 810.211 985.967 804.906 990.388L791.91 966.252C799.513 960.417 808.531 956.085 818.963 953.256C829.572 950.25 840.535 948.747 851.851 948.747C872.362 948.747 888.187 953.698 899.326 963.6C910.643 973.325 916.301 988.443 916.301 1008.95V1091.97H885.004ZM840.446 1093.83C829.837 1093.83 820.554 1092.06 812.598 1088.52C804.641 1084.81 798.452 1079.77 794.032 1073.4C789.788 1066.86 787.667 1059.52 787.667 1051.39C787.667 1043.43 789.523 1036.27 793.236 1029.91C797.126 1023.54 803.403 1018.5 812.067 1014.79C820.731 1011.08 832.224 1009.22 846.547 1009.22H887.657V1031.23H848.934C837.617 1031.23 830.014 1033.09 826.124 1036.8C822.234 1040.34 820.289 1044.76 820.289 1050.06C820.289 1056.08 822.676 1060.85 827.45 1064.39C832.224 1067.92 838.855 1069.69 847.342 1069.69C855.476 1069.69 862.725 1067.83 869.091 1064.12C875.633 1060.41 880.319 1054.93 883.148 1047.68L888.717 1067.57C885.535 1075.88 879.788 1082.33 871.478 1086.93C863.344 1091.53 853 1093.83 840.446 1093.83ZM958.849 1091.97V950.339H992.002V1091.97H958.849ZM975.558 926.999C969.369 926.999 964.242 925.054 960.175 921.164C956.285 917.274 954.34 912.588 954.34 907.107C954.34 901.449 956.285 896.763 960.175 893.05C964.242 889.16 969.369 887.215 975.558 887.215C981.747 887.215 986.786 889.072 990.676 892.785C994.743 896.321 996.776 900.83 996.776 906.311C996.776 912.146 994.831 917.097 990.941 921.164C987.051 925.054 981.923 926.999 975.558 926.999Z" fill="url(#paint2_linear_482_3636)"/>
<defs>
<linearGradient id="paint0_linear_482_3636" x1="558.55" y1="11.0999" x2="558.55" y2="807.404" gradientUnits="userSpaceOnUse">
<stop stop-color="#6D63FF"/>
<stop offset="1" stop-color="#3B32C0"/>
</linearGradient>
<linearGradient id="paint1_linear_482_3636" x1="461.708" y1="0" x2="461.708" y2="101.266" gradientUnits="userSpaceOnUse">
<stop stop-color="#6D63FF"/>
<stop offset="1" stop-color="#3B32C0"/>
</linearGradient>
<linearGradient id="paint2_linear_482_3636" x1="507.005" y1="834.969" x2="507.005" y2="1157.97" gradientUnits="userSpaceOnUse">
<stop stop-color="#6D63FF"/>
<stop offset="1" stop-color="#3B32C0"/>
</linearGradient>
</defs>
</svg>
