<svg width="14" height="15" viewBox="0 0 14 15" fill="none" xmlns="http://www.w3.org/2000/svg">
<path d="M12 8.5V1.5C12 0.947715 11.5523 0.5 11 0.5H2C1.44771 0.5 1 0.947715 1 1.5V13C1 13.5523 1.44772 14 2 14H8" stroke="white" stroke-width="0.5"/>
<path d="M2.75 8.5H5.75" stroke="white" stroke-width="0.5" stroke-linecap="round"/>
<path d="M2.75 2.5L7.75 2.5" stroke="white" stroke-width="0.5" stroke-linecap="round"/>
<path d="M8.75 2.5L9.75 2.5" stroke="white" stroke-width="0.5" stroke-linecap="round"/>
<path d="M2.75 4.5L6.75 4.5" stroke="white" stroke-width="0.5" stroke-linecap="round"/>
<path d="M8.75 4.5H9.75" stroke="white" stroke-width="0.5" stroke-linecap="round"/>
<path d="M2.75 6.5L7.75 6.5" stroke="white" stroke-width="0.5" stroke-linecap="round"/>
<path d="M8.75 6.5H9.75" stroke="white" stroke-width="0.5" stroke-linecap="round"/>
<circle cx="3" cy="10.75" r="0.25" fill="white"/>
<circle cx="4" cy="10.75" r="0.25" fill="white"/>
<circle cx="5" cy="10.75" r="0.25" fill="white"/>
<circle cx="6" cy="10.75" r="0.25" fill="white"/>
<circle cx="7" cy="10.75" r="0.25" fill="white"/>
<path d="M9 12L13 12" stroke="white" stroke-width="0.35" stroke-linecap="round"/>
<path d="M11 14V10" stroke="white" stroke-width="0.35" stroke-linecap="round"/>
<circle cx="11" cy="12" r="2.75" stroke="white" stroke-width="0.5"/>
</svg>
