<svg width="15" height="23" viewBox="0 0 15 23" fill="none" xmlns="http://www.w3.org/2000/svg">
<g clip-path="url(#clip0_474_1398)">
<path d="M15 0H0L2.30753 21.945C2.30753 21.945 3.87947 22.9019 7.24318 22.9923C7.24318 22.9965 7.24318 23 7.24318 23C7.32984 23 7.4151 22.9986 7.49965 22.9979C7.5842 22.9993 7.66945 23 7.75612 23C7.75612 23 7.75612 22.9972 7.75612 22.9923C11.1191 22.9019 12.6918 21.945 12.6918 21.945L15 0Z" fill="white"/>
<path d="M14.2103 0.815552H0.55957L2.65995 21.224C2.65995 21.224 4.09097 22.0946 7.15171 22.1774C7.15171 22.1815 7.15171 22.1843 7.15171 22.1843C7.23062 22.1843 7.30813 22.1836 7.38493 22.1822C7.46173 22.1829 7.53923 22.1843 7.61815 22.1843C7.61815 22.1843 7.61815 22.1815 7.61815 22.1774C10.6789 22.0946 12.1099 21.224 12.1099 21.224L14.2103 0.815552Z" fill="#99ECFF"/>
<path d="M10.6625 3.14626C9.71551 2.92914 8.75798 3.58608 7.7786 3.55685C7.30371 3.54293 6.84854 3.36687 6.37717 3.30841C6.16157 3.28127 5.94314 3.27918 5.72683 3.2938C4.94122 3.34599 4.18942 3.60696 3.40874 3.69464C3.02544 3.73779 2.64426 3.70439 2.26166 3.73431C1.82975 3.76771 1.39361 3.77467 0.962402 3.72874L2.66892 21.2241C2.66892 21.2241 4.09994 22.0946 7.16067 22.1775C7.16067 22.1816 7.16067 22.1844 7.16067 22.1844C7.23959 22.1844 7.31709 22.1837 7.39389 22.1823C7.47069 22.183 7.5482 22.1844 7.62711 22.1844C7.62711 22.1844 7.62711 22.1816 7.62711 22.1775C10.6878 22.0946 12.1189 21.2241 12.1189 21.2241L13.8078 3.85818C13.3892 3.83243 12.9714 3.77467 12.5543 3.72805C12.1456 3.68212 11.744 3.57773 11.3657 3.41836C11.1501 3.3272 10.9408 3.21864 10.7146 3.15879C10.697 3.15392 10.6801 3.14974 10.6625 3.14557V3.14626Z" fill="#37AFD4"/>
<path d="M14.7153 0.253313L12.4508 21.7863C12.0492 21.9895 10.5125 22.6653 7.74907 22.7397L7.5377 22.7453C7.52572 22.7453 7.51444 22.7453 7.50247 22.7453H7.49683H7.49331C7.48203 22.7453 7.47146 22.7453 7.46019 22.7453L7.24881 22.7397C4.48541 22.6653 2.94871 21.9895 2.54709 21.7863L0.284654 0.253313H14.7153ZM15 0H0L2.30753 21.945C2.30753 21.945 3.87947 22.9019 7.24318 22.9923C7.24318 22.9965 7.24318 23 7.24318 23C7.32984 23 7.4151 22.9986 7.49965 22.9979C7.5842 22.9993 7.66945 23 7.75612 23C7.75612 23 7.75612 22.9972 7.75612 22.9923C11.1191 22.9019 12.6918 21.945 12.6918 21.945L15 0Z" fill="url(#paint0_linear_474_1398)"/>
<path d="M14.7153 0.253313L12.4508 21.7863C12.0492 21.9895 10.5125 22.6653 7.74907 22.7397L7.5377 22.7453C7.52572 22.7453 7.51444 22.7453 7.50247 22.7453H7.49683H7.49331C7.48203 22.7453 7.47146 22.7453 7.46019 22.7453L7.24881 22.7397C4.48541 22.6653 2.94871 21.9895 2.54709 21.7863L0.284654 0.253313H14.7153ZM15 0H0L2.30753 21.945C2.30753 21.945 3.87947 22.9019 7.24318 22.9923C7.24318 22.9965 7.24318 23 7.24318 23C7.32984 23 7.4151 22.9986 7.49965 22.9979C7.5842 22.9993 7.66945 23 7.75612 23C7.75612 23 7.75612 22.9972 7.75612 22.9923C11.1191 22.9019 12.6918 21.945 12.6918 21.945L15 0Z" fill="url(#paint1_linear_474_1398)"/>
<path d="M10.876 1.02856H14.0008L12.5747 16.2364L13.6485 1.23456L10.876 1.02856Z" fill="#99ECFF"/>
<path d="M0.844238 1.06959L3.29621 20.8579L1.19653 1.0675L0.844238 1.06959Z" fill="#99ECFF"/>
</g>
<defs>
<linearGradient id="paint0_linear_474_1398" x1="15" y1="11.5" x2="0" y2="11.5" gradientUnits="userSpaceOnUse">
<stop stop-color="#D7F4FF"/>
<stop offset="0.44" stop-color="#D7F4FF" stop-opacity="0.2"/>
<stop offset="1" stop-color="#D7F4FF" stop-opacity="0"/>
</linearGradient>
<linearGradient id="paint1_linear_474_1398" x1="0" y1="0" x2="14.8599" y2="11.6783" gradientUnits="userSpaceOnUse">
<stop stop-color="#D7F4FF"/>
<stop offset="0.44" stop-color="#D7F4FF" stop-opacity="0.2"/>
<stop offset="1" stop-color="#D7F4FF" stop-opacity="0"/>
</linearGradient>
<clipPath id="clip0_474_1398">
<rect width="15" height="23" fill="white"/>
</clipPath>
</defs>
</svg>
