<svg width="17" height="17" viewBox="0 0 17 17" fill="none" xmlns="http://www.w3.org/2000/svg">
<path d="M6.48652 14.7131V12.5408C6.48651 11.9883 6.93695 11.5394 7.49505 11.5356H9.53935C10.1001 11.5356 10.5547 11.9857 10.5547 12.5408V12.5408V14.7198C10.5546 15.189 10.9328 15.5724 11.4065 15.5834H12.7693C14.128 15.5834 15.2293 14.493 15.2293 13.148V13.148V6.96849C15.2221 6.43936 14.9711 5.94248 14.5479 5.61925L9.88688 1.90211C9.07032 1.25488 7.90956 1.25488 7.093 1.90211L2.45243 5.626C2.0276 5.94791 1.77623 6.44562 1.771 6.97523V13.148C1.771 14.493 2.87237 15.5834 4.23097 15.5834H5.59384C6.07933 15.5834 6.47289 15.1937 6.47289 14.7131V14.7131" stroke="white" stroke-linecap="round" stroke-linejoin="round"/>
</svg>
