<svg width="17" height="17" viewBox="0 0 17 17" fill="none" xmlns="http://www.w3.org/2000/svg">
<rect x="4.69874" y="0.491713" width="7.4307" height="2.86637" rx="1.43318" fill="#504E4E" stroke="#504E4E" stroke-width="0.983425"/>
<path d="M2.29089 3.60936L2.29102 3.6095L2.30114 3.59998C3.54189 2.4325 5.69641 1.97946 8.5 1.9437C11.3036 1.97946 13.4581 2.4325 14.6989 3.59998L14.6987 3.60013L14.7091 3.60936C15.9713 4.73262 16.4609 6.673 16.4999 9.22183C16.4609 11.7707 15.9713 13.711 14.7091 14.8343L14.709 14.8342L14.6989 14.8437C13.4581 16.0112 11.3036 16.4642 8.5 16.5C5.69641 16.4642 3.54189 16.0112 2.30114 14.8437L2.30127 14.8435L2.2909 14.8343C1.02869 13.711 0.539091 11.7707 0.500057 9.22183C0.539091 6.673 1.02869 4.73262 2.29089 3.60936Z" stroke="#504E4E"/>
<path d="M11.7321 7.44764L11.7322 7.44775L11.7361 7.444C11.945 7.24614 12.256 7.29834 12.4097 7.444C12.4544 7.48634 12.5084 7.58091 12.522 7.69177C12.5349 7.79747 12.5105 7.91082 12.4112 8.0058L9.35559 10.6409L9.35552 10.6409L9.35225 10.644C9.34757 10.6484 9.34411 10.6525 9.34228 10.6548C9.23454 10.7536 9.09329 10.8044 8.95087 10.8044L8.95001 10.8044C8.80854 10.8057 8.66803 10.7554 8.5605 10.6558C8.55788 10.6526 8.55418 10.6484 8.54949 10.644L8.5497 10.6437L8.54372 10.6389L6.71053 9.16076L6.64861 9.11084L6.58803 9.16237L4.63037 10.8273L4.63028 10.8272L4.62653 10.8308C4.52499 10.927 4.35221 10.9756 4.1815 10.9719C4.09778 10.97 4.02043 10.9556 3.95937 10.9319C3.89681 10.9077 3.86052 10.8775 3.84447 10.8509L3.83775 10.8397L3.82829 10.8308C3.81793 10.821 3.80084 10.7935 3.78909 10.7413C3.7779 10.6917 3.77379 10.6291 3.78027 10.5611C3.79319 10.4254 3.8466 10.282 3.94945 10.1824L6.37886 8.33224L6.3792 8.33268L6.38673 8.32555C6.60249 8.12111 6.95943 8.12111 7.17519 8.32555L7.17504 8.3257L7.17997 8.32979L8.8896 9.74638L8.95148 9.79765L9.01286 9.74578L11.7321 7.44764Z" fill="#504E4E" stroke="#504E4E" stroke-width="0.192075"/>
</svg>
