<svg width="12" height="12" viewBox="0 0 12 12" fill="none" xmlns="http://www.w3.org/2000/svg">
<g clip-path="url(#clip0_233_516)">
<path d="M0.00012207 12L0.848259 8.92015C0.323904 8.01616 0.0488326 6.9924 0.051698 5.94582C0.051698 2.66635 2.73364 0 6.02591 0C7.62476 0 9.12619 0.618821 10.2523 1.7424C11.3812 2.86597 12.003 4.36027 12.0001 5.94867C12.0001 9.22814 9.31817 11.8945 6.02304 11.8945H6.02017C5.02018 11.8945 4.03737 11.6435 3.16344 11.1702L0.00012207 12ZM3.31531 10.0951L3.49582 10.2034C4.258 10.654 5.13192 10.8907 6.02304 10.8935H6.02591C8.76229 10.8935 10.9915 8.67776 10.9915 5.95152C10.9915 4.63118 10.4758 3.39069 9.5388 2.45532C8.60183 1.51996 7.35255 1.00665 6.02591 1.00665C3.28952 1.0038 1.06029 3.21958 1.06029 5.94582C1.06029 6.87833 1.32104 7.78802 1.8196 8.5751L1.93708 8.76331L1.43565 10.5856L3.31531 10.0951Z" fill="white"/>
<path d="M0.209229 11.7918L1.02871 8.81745C0.521549 7.94768 0.255074 6.95813 0.255074 5.94863C0.257939 2.78323 2.84533 0.20813 6.02584 0.20813C7.57025 0.20813 9.01725 0.806989 10.1061 1.89064C11.1949 2.97429 11.7937 4.41726 11.7937 5.95148C11.7937 9.11688 9.20349 11.692 6.02584 11.692H6.02298C5.05736 11.692 4.10894 11.4496 3.26653 10.9933L0.209229 11.7918Z" fill="url(#paint0_linear_233_516)"/>
<path d="M0.00012207 12L0.848259 8.92015C0.323904 8.01616 0.0488326 6.9924 0.051698 5.94582C0.051698 2.66635 2.73364 0 6.02591 0C7.62476 0 9.12619 0.618821 10.2523 1.7424C11.3812 2.86597 12.003 4.36027 12.0001 5.94867C12.0001 9.22814 9.31817 11.8945 6.02304 11.8945H6.02017C5.02018 11.8945 4.03737 11.6435 3.16344 11.1702L0.00012207 12ZM3.31531 10.0951L3.49582 10.2034C4.258 10.654 5.13192 10.8907 6.02304 10.8935H6.02591C8.76229 10.8935 10.9915 8.67776 10.9915 5.95152C10.9915 4.63118 10.4758 3.39069 9.5388 2.45532C8.60183 1.51996 7.35255 1.00665 6.02591 1.00665C3.28952 1.0038 1.06029 3.21958 1.06029 5.94582C1.06029 6.87833 1.32104 7.78802 1.8196 8.5751L1.93708 8.76331L1.43565 10.5856L3.31531 10.0951Z" fill="url(#paint1_linear_233_516)"/>
<path fill-rule="evenodd" clip-rule="evenodd" d="M4.533 3.45909C4.42125 3.21099 4.30377 3.20529 4.19776 3.20244C4.1118 3.19959 4.01151 3.19958 3.91123 3.19958C3.81094 3.19958 3.65048 3.23666 3.51294 3.38495C3.37541 3.53324 2.99146 3.89255 2.99146 4.62544C2.99146 5.35548 3.52727 6.0627 3.60177 6.16251C3.67627 6.26232 4.63615 7.8108 6.15191 8.40681C7.41265 8.90301 7.67053 8.8032 7.94274 8.77753C8.21495 8.75187 8.82526 8.41822 8.95134 8.07031C9.07454 7.7224 9.07454 7.42582 9.0373 7.36308C9.00005 7.30035 8.89976 7.26327 8.75076 7.18913C8.60177 7.11499 7.86824 6.75567 7.73071 6.70434C7.59317 6.65586 7.49288 6.63019 7.39546 6.77848C7.29518 6.92677 7.00864 7.26042 6.92268 7.36023C6.83672 7.46004 6.7479 7.47145 6.5989 7.3973C6.4499 7.32316 5.96853 7.16632 5.39833 6.65871C4.9542 6.26518 4.65334 5.77753 4.56738 5.62924C4.48142 5.48095 4.55879 5.40111 4.63329 5.32696C4.69919 5.26137 4.78228 5.15301 4.85678 5.06746C4.93128 4.9819 4.95707 4.91917 5.00578 4.81936C5.05449 4.71955 5.03157 4.634 4.99432 4.55985C4.95707 4.48856 4.66481 3.75282 4.533 3.45909Z" fill="white"/>
</g>
<defs>
<linearGradient id="paint0_linear_233_516" x1="6.00119" y1="11.7912" x2="6.00119" y2="0.207725" gradientUnits="userSpaceOnUse">
<stop stop-color="#20B038"/>
<stop offset="1" stop-color="#60D66A"/>
</linearGradient>
<linearGradient id="paint1_linear_233_516" x1="6.00129" y1="11.9989" x2="6.00129" y2="0" gradientUnits="userSpaceOnUse">
<stop stop-color="#F9F9F9"/>
<stop offset="1" stop-color="white"/>
</linearGradient>
<clipPath id="clip0_233_516">
<rect width="12" height="12" rx="6" fill="white"/>
</clipPath>
</defs>
</svg>
